<mxfile host="app.diagrams.net" modified="2020-10-05T00:48:34.839Z" agent="5.0 (Windows NT 10.0; Win64; x64) AppleWebKit/537.36 (KHTML, like Gecko) Chrome/85.0.4183.121 Safari/537.36" etag="tGY7cknxIAuHxnkuGi0Y" version="13.7.7" type="github">
  <diagram id="SQ1xv1VXRa9DyDstRdNU" name="Page-1">
    <mxGraphModel dx="782" dy="593" grid="1" gridSize="10" guides="1" tooltips="1" connect="1" arrows="1" fold="1" page="1" pageScale="1" pageWidth="827" pageHeight="1169" math="0" shadow="0">
      <root>
        <mxCell id="0" />
        <mxCell id="1" parent="0" />
        <mxCell id="No3HL8913TP6qKhReG87-3" style="edgeStyle=orthogonalEdgeStyle;rounded=0;orthogonalLoop=1;jettySize=auto;html=1;" edge="1" parent="1" source="No3HL8913TP6qKhReG87-1" target="No3HL8913TP6qKhReG87-2">
          <mxGeometry relative="1" as="geometry" />
        </mxCell>
        <mxCell id="No3HL8913TP6qKhReG87-1" value="take a picture" style="verticalLabelPosition=bottom;verticalAlign=top;html=1;shape=trapezoid;perimeter=trapezoidPerimeter;whiteSpace=wrap;size=0.23;arcSize=10;flipV=1;" vertex="1" parent="1">
          <mxGeometry x="140" y="100" width="100" height="60" as="geometry" />
        </mxCell>
        <mxCell id="No3HL8913TP6qKhReG87-2" value="OCR" style="rounded=1;whiteSpace=wrap;html=1;absoluteArcSize=1;arcSize=14;strokeWidth=2;" vertex="1" parent="1">
          <mxGeometry x="140" y="250" width="100" height="100" as="geometry" />
        </mxCell>
      </root>
    </mxGraphModel>
  </diagram>
</mxfile>
